<svg id="Layer_1" data-name="Layer 1" xmlns="http://www.w3.org/2000/svg" viewBox="0 0 1080 1080"><defs><style>.cls-1{fill:#c1272d;}.cls-2{fill:#fff;}</style></defs><path d="M722.66,509.09v62.59a3.93,3.93,0,0,1-3.27,3.87l-41.24,7a3.78,3.78,0,0,0-3,2.84c-1.47,6-5.78,21.83-12.49,29.56a1.86,1.86,0,0,0-.13,2.26l25,37.1a2.47,2.47,0,0,1-.29,3.1l-44.52,45.45a3.4,3.4,0,0,1-4.45.35L603.1,677.06a2.4,2.4,0,0,0-2.84,0c-4.46,3.25-18.83,13-31.09,13a1.78,1.78,0,0,0-1.74,1.53L560.66,738h-74l-6.77-46.43a1.78,1.78,0,0,0-1.74-1.53c-12.26,0-26.63-9.74-31.09-13a2.4,2.4,0,0,0-2.84,0L409,703.23a3.4,3.4,0,0,1-4.45-.35l-44.52-45.45a2.47,2.47,0,0,1-.29-3.1l25.05-37.1a1.86,1.86,0,0,0-.13-2.26c-6.71-7.73-11-23.53-12.49-29.56a3.78,3.78,0,0,0-3-2.84l-41.24-7a3.93,3.93,0,0,1-3.27-3.87V509.09a3.67,3.67,0,0,1,3-3.62l40.1-7a4.16,4.16,0,0,0,3.34-3.09c2.18-9,10.28-26.56,12.77-31.86a2.92,2.92,0,0,0-.25-3L360.06,427a2.87,2.87,0,0,1,.34-3.7L405.64,379a3.44,3.44,0,0,1,4.35-.38l33.35,22.82a4,4,0,0,0,4.51,0c9.81-6.55,25.79-9.45,30.48-10.19a1.9,1.9,0,0,0,1.58-1.54L488,345.36a4.11,4.11,0,0,1,4-3.36h63.16a4.11,4.11,0,0,1,4,3.36l8.13,44.29a1.9,1.9,0,0,0,1.58,1.54c4.69.74,20.67,3.64,30.48,10.19a4,4,0,0,0,4.51,0l33.35-22.82a3.44,3.44,0,0,1,4.35.38l45.24,44.32a2.87,2.87,0,0,1,.34,3.7l-23.61,33.6a2.92,2.92,0,0,0-.25,3c2.49,5.3,10.59,22.83,12.77,31.86a4.16,4.16,0,0,0,3.34,3.09l40.1,7A3.67,3.67,0,0,1,722.66,509.09Zm-78,30.41A119.5,119.5,0,1,0,525.16,659,119.5,119.5,0,0,0,644.66,539.5Z"/><circle class="cls-1" cx="525.16" cy="539.5" r="119.5"/><path class="cls-2" d="M465.9,526.63s9.43-14.62,6.6-18.39-17-17-17-17a9.71,9.71,0,0,0-9.22-2.5,12.65,12.65,0,0,0-9.65,10,22.3,22.3,0,0,0-.46,4.3v94.31a17.41,17.41,0,0,0,4.22,11.5c2,2.26,4.68,4.07,8,3.59,6.6-1,7.55-1.42,17.92-22.64,11.67-23.87,17.92-38.19,17.92-38.19l38.19-83s.47-2.36,1.89,1.42S530,482.78,530,482.78l16,34.81a14.11,14.11,0,0,1,.54,1.46c.18.51.78,1.07,2.76-.91l8.17-8.17a7.41,7.41,0,0,0,1.77-7.75s0-.07,0-.11c0-.47-5.66-11.79-5.66-11.79L542.76,465.8l-6.82-14.49a20.42,20.42,0,0,0-1.7-2.94l-1.77-2.56a20.6,20.6,0,0,0-3.51-3.89h0a9.46,9.46,0,0,0-5.9-2.33,8.15,8.15,0,0,0-5.77,2.16,20.5,20.5,0,0,0-5.65,7.08l-7.55,16-13.2,29.23-11.32,25-18.86,41-6.6,12.73V515.31l8,8.49,2.35,2.36S465.43,527.1,465.9,526.63Z"/><path class="cls-2" d="M502.21,537,523,559.64l33.48-33.48L586,496.63c.65-.65,2.36-2.58,3.59-3.82,1.43-1.42,4.08-4.05,7-4.37,4.24-.48,5.66,0,5.66,0a9.12,9.12,0,0,1,1.2.49,13.72,13.72,0,0,1,7.76,12.42v49.8l-.47,24.52-.48,22.16v1.56a12.9,12.9,0,0,1-1.41,6,11.67,11.67,0,0,1-8.49,6.13s-5.66,1.42-9-1.41-6.6-9-6.6-9L580,591.7l-15.56-34.42h0s-.33-1,1.2-2.4c1.27-1.19,2.55-2.37,3.75-3.63l7.31-7.65s.94-.94,1.88,1.42l5.19,11.31,8.49,17v-58L580,527.57l-27.82,28.29-26.88,27.35a2.4,2.4,0,0,1-3.77-.47L495.6,556.81s-1.88-1.42-.47-6.13S500.79,538,500.79,538,501.26,536.53,502.21,537Z"/></svg>